<?xml version="1.0" encoding="utf-8"?>
<!-- Generator: Adobe Illustrator 16.0.3, SVG Export Plug-In . SVG Version: 6.00 Build 0)  -->
<!DOCTYPE svg PUBLIC "-//W3C//DTD SVG 1.1//EN" "http://www.w3.org/Graphics/SVG/1.1/DTD/svg11.dtd" [
	<!ENTITY ns_flows "http://ns.adobe.com/Flows/1.0/">
	<!ENTITY ns_extend "http://ns.adobe.com/Extensibility/1.0/">
	<!ENTITY ns_ai "http://ns.adobe.com/AdobeIllustrator/10.0/">
	<!ENTITY ns_graphs "http://ns.adobe.com/Graphs/1.0/">
	<!ENTITY ns_vars "http://ns.adobe.com/Variables/1.0/">
	<!ENTITY ns_imrep "http://ns.adobe.com/ImageReplacement/1.0/">
	<!ENTITY ns_sfw "http://ns.adobe.com/SaveForWeb/1.0/">
	<!ENTITY ns_custom "http://ns.adobe.com/GenericCustomNamespace/1.0/">
	<!ENTITY ns_adobe_xpath "http://ns.adobe.com/XPath/1.0/">
]>
<svg version="1.1" id="Layer_1" xmlns:x="&ns_extend;" xmlns:i="&ns_ai;" xmlns:graph="&ns_graphs;"
	 xmlns="http://www.w3.org/2000/svg" xmlns:xlink="http://www.w3.org/1999/xlink" xmlns:a="http://ns.adobe.com/AdobeSVGViewerExtensions/3.0/"
	 x="0px" y="0px" width="800px" height="400px" viewBox="0 0 800 400" style="enable-background:new 0 0 800 400;"
	 xml:space="preserve">
<style type="text/css">
<![CDATA[
	.st0{adobe-blending-mode:multiply;}
	.st1{opacity:0.3;fill:#0C0911;adobe-blending-mode:multiply;}
	.st2{fill:#F3A402;adobe-blending-mode:multiply;}
	.st3{fill:#B0B0B0;}
	.st4{fill:#0C0911;adobe-blending-mode:normal;}
	.st5{fill:#59658B;}
	.st6{fill:#F3A402;}
	.st7{display:inline;fill:#FFFFFF;}
	.st8{fill:#969ECC;}
	.st9{fill:#2C2C58;}
	.st10{fill:#FFFFFF;}
	.st11{fill:none;stroke:#FFFFFF;stroke-width:1.5;stroke-miterlimit:10;}
	.st12{display:inline;}
	.st13{fill:#CFCFCF;}
	.st14{adobe-blending-mode:normal;}
	.st15{opacity:0.2;adobe-blending-mode:multiply;}
	.st16{display:inline;fill:#FFFFFF;stroke:#FFFFFF;stroke-miterlimit:10;}
	.st17{fill:#716580;}
	.st18{display:none;}
	.st19{fill:#0C0911;}
	.st20{display:inline;fill:none;stroke:#FFFFFF;stroke-miterlimit:10;}
	.st21{fill:#CFCFCF;adobe-blending-mode:normal;}
	.st22{opacity:0.2;fill:#0C0911;adobe-blending-mode:multiply;}
]]>
</style>
<metadata>
	<sfw  xmlns="&ns_sfw;">
		<slices></slices>
		<sliceSourceBounds  width="947.5" height="586.2" y="-399.9" x="-72.8" bottomLeftOrigin="true"></sliceSourceBounds>
	</sfw>
</metadata>
<g>
	<g>
		<g class="st18">
			<g class="st12">
				<g>
					<path class="st10" d="M278.5-120.3c-18.2,0-33-14.8-33-33s14.8-33,33-33c18.2,0,33,14.8,33,33S296.7-120.3,278.5-120.3z
						 M278.5-183c-16.4,0-29.7,13.3-29.7,29.7s13.3,29.7,29.7,29.7c16.4,0,29.7-13.3,29.7-29.7S294.9-183,278.5-183z"/>
				</g>
				<g>
					<path class="st10" d="M200.4-70.2c-18.2,0-33-14.8-33-33s14.8-33,33-33s33,14.8,33,33S218.6-70.2,200.4-70.2z M200.4-133
						c-16.4,0-29.7,13.3-29.7,29.7s13.3,29.7,29.7,29.7s29.7-13.3,29.7-29.7S216.8-133,200.4-133z"/>
				</g>
				<g>
					<path class="st10" d="M108.2-7.5c-18.2,0-33-14.8-33-33c0-18.2,14.8-33,33-33c18.2,0,33,14.8,33,33
						C141.2-22.3,126.4-7.5,108.2-7.5z M108.2-70.2c-16.4,0-29.7,13.3-29.7,29.7c0,16.4,13.3,29.7,29.7,29.7
						c16.4,0,29.7-13.3,29.7-29.7C137.9-56.9,124.6-70.2,108.2-70.2z"/>
				</g>
				<g>
					<path class="st10" d="M-28.5,147.1c-18.2,0-33-14.8-33-33c0-18.2,14.8-33,33-33c18.2,0,33,14.8,33,33
						C4.5,132.3-10.3,147.1-28.5,147.1z M-28.5,84.4c-16.4,0-29.7,13.3-29.7,29.7c0,16.4,13.3,29.7,29.7,29.7
						c16.4,0,29.7-13.3,29.7-29.7C1.3,97.7-12.1,84.4-28.5,84.4z"/>
				</g>
				<g>
					<path class="st10" d="M-39.8,54.8c-18.2,0-33-14.8-33-33s14.8-33,33-33s33,14.8,33,33S-21.6,54.8-39.8,54.8z M-39.8-8
						C-56.2-8-69.5,5.4-69.5,21.8c0,16.4,13.3,29.7,29.7,29.7S-10,38.2-10,21.8C-10,5.4-23.4-8-39.8-8z"/>
				</g>
				<g>
					<path class="st10" d="M523.5-120.3c-18.2,0-33-14.8-33-33s14.8-33,33-33c18.2,0,33,14.8,33,33S541.7-120.3,523.5-120.3z
						 M523.5-183c-16.4,0-29.7,13.3-29.7,29.7s13.3,29.7,29.7,29.7c16.4,0,29.7-13.3,29.7-29.7S539.9-183,523.5-183z"/>
				</g>
				<g>
					<path class="st10" d="M601.6-70.2c-18.2,0-33-14.8-33-33s14.8-33,33-33c18.2,0,33,14.8,33,33S619.8-70.2,601.6-70.2z
						 M601.6-133c-16.4,0-29.7,13.3-29.7,29.7s13.3,29.7,29.7,29.7c16.4,0,29.7-13.3,29.7-29.7S618-133,601.6-133z"/>
				</g>
				<g>
					<path class="st10" d="M693.8-7.5c-18.2,0-33-14.8-33-33c0-18.2,14.8-33,33-33c18.2,0,33,14.8,33,33
						C726.8-22.3,712-7.5,693.8-7.5z M693.8-70.2c-16.4,0-29.7,13.3-29.7,29.7c0,16.4,13.3,29.7,29.7,29.7
						c16.4,0,29.7-13.3,29.7-29.7C723.6-56.9,710.3-70.2,693.8-70.2z"/>
				</g>
				<g>
					<path class="st10" d="M830.5,147.1c-18.2,0-33-14.8-33-33c0-18.2,14.8-33,33-33c18.2,0,33,14.8,33,33
						C863.5,132.3,848.7,147.1,830.5,147.1z M830.5,84.4c-16.4,0-29.7,13.3-29.7,29.7c0,16.4,13.3,29.7,29.7,29.7
						c16.4,0,29.7-13.3,29.7-29.7C860.2,97.7,846.9,84.4,830.5,84.4z"/>
				</g>
				<g>
					<path class="st10" d="M841.8,54.8c-18.2,0-33-14.8-33-33s14.8-33,33-33c18.2,0,33,14.8,33,33S860,54.8,841.8,54.8z M841.8-8
						C825.4-8,812,5.4,812,21.8c0,16.4,13.3,29.7,29.7,29.7s29.7-13.3,29.7-29.7C871.5,5.4,858.2-8,841.8-8z"/>
				</g>
			</g>
			<g class="st12">
				<g>
					<polyline class="st11" points="278.5,-121.9 278.5,33.3 332.3,33.3 					"/>
					<polyline class="st11" points="200.4,-71.9 200.4,21.8 177.5,21.8 177.5,78.2 224.3,78.2 					"/>
					<polyline class="st11" points="108.2,-9.1 108.2,88.1 143.3,88.1 143.3,122.3 					"/>
					<polyline class="st11" points="-8.4,21.8 61.3,21.8 61.3,160.4 86.8,160.4 					"/>
					<polyline class="st11" points="-28.5,145.5 -28.5,354.8 50.4,354.8 					"/>
				</g>
				<g>
					<polyline class="st11" points="523.5,-121.9 523.5,74.6 469.8,74.6 					"/>
					<polyline class="st11" points="601.6,-71.9 601.6,21.8 624.5,21.8 624.5,137.3 577.7,137.3 					"/>
					<polyline class="st11" points="693.8,-9.1 693.8,88.1 658.7,88.1 658.7,122.3 					"/>
					<polyline class="st11" points="810.4,21.8 740.7,21.8 740.7,160.4 715.2,160.4 					"/>
					<polyline class="st11" points="830.5,145.5 830.5,354.8 740.7,354.8 					"/>
				</g>
			</g>
			<g class="st12">
				<path class="st10" d="M278.5-129.8c-5.2,0-9.4-4.2-9.4-9.4c0-3.3,1.7-6.3,4.4-8v-24.7c0-2.7,2.2-5,5-5s5,2.2,5,5v24.7
					c2.7,1.7,4.4,4.7,4.4,8C287.9-134,283.7-129.8,278.5-129.8z M278.5-174.6c-1.5,0-2.8,1.3-2.8,2.8v26l-0.6,0.3
					c-2.4,1.3-3.8,3.7-3.8,6.4c0,4,3.2,7.2,7.2,7.2c4,0,7.2-3.2,7.2-7.2c0-2.7-1.5-5.1-3.8-6.4l-0.6-0.3v-26
					C281.3-173.4,280.1-174.6,278.5-174.6z"/>
			</g>
			<path class="st7" d="M209.7-111.7v-5.4c0-5.1-4.2-9.3-9.3-9.3c-5.1,0-9.3,4.2-9.3,9.3v5.4h-4.7v27.8h28.2v-27.8H209.7z
				 M196.2-117.1c0-2.3,1.9-4.2,4.2-4.2c2.3,0,4.2,1.9,4.2,4.2v5.4h-8.5V-117.1z"/>
			<path class="st20" d="M124.2-52.6c0-3.6-7.2-6.5-16.1-6.5s-16.1,2.9-16.1,6.5l0,0V-26l16.1,8.8l16.1-8.8L124.2-52.6L124.2-52.6z"
				/>
			<path class="st7" d="M-25.3,15.4c-0.4,0-0.7,0-1.1,0.1c0.7-0.9,1.1-2,1.1-3.2c0-3-2.4-5.3-5.4-5.3c-0.6,0-1.3,0.1-1.8,0.3
				c0.1-0.4,0.1-0.8,0.1-1.2c0-3.8-3.1-6.8-6.8-6.8c-3.8,0-6.8,3.1-6.8,6.8c0,0.6,0.1,1.2,0.3,1.8c-0.6-0.2-1.2-0.3-1.9-0.3
				c-3.2,0-5.8,2.6-5.8,5.8c0,0.7,0.2,1.5,0.4,2.1c-0.4-0.1-0.8-0.1-1.2-0.1c-2.8,0-5.1,2.3-5.1,5.1c0,2.8,2.3,5.1,5.1,5.1
				c2.8,0,26.2,0,29,0s5.1-2.3,5.1-5.1C-20.2,17.6-22.5,15.4-25.3,15.4z"/>
			<g class="st12">
				<g>
					<g>
						<path class="st10" d="M-11.9,124.9v-5.8h-2.6c-0.2-0.9-0.6-1.7-1-2.5l1.9-1.9l-4.1-4.1l-1.9,1.9c-0.8-0.4-1.6-0.8-2.5-1v-2.6
							H-28v2.6c-0.9,0.2-1.7,0.6-2.5,1l-1.9-1.9l-4.1,4.1l1.9,1.9c-0.4,0.8-0.8,1.6-1,2.5h-2.6v5.8h2.6c0.2,0.9,0.6,1.7,1,2.5
							l-1.9,1.9l4.1,4.1l1.9-1.9c0.8,0.4,1.6,0.8,2.5,1v2.6h5.8v-2.6c0.9-0.2,1.7-0.6,2.5-1l1.9,1.9l4.1-4.1l-1.9-1.9
							c0.4-0.8,0.8-1.6,1-2.5H-11.9z M-25.1,127.1c-2.8,0-5.1-2.3-5.1-5.1c0-2.8,2.3-5.1,5.1-5.1s5.1,2.3,5.1,5.1
							C-19.9,124.8-22.2,127.1-25.1,127.1z"/>
					</g>
				</g>
				<g>
					<g>
						<path class="st10" d="M-34.5,110.3v-1.7c0.6-0.2,1.1-0.4,1.6-0.7l1.2,1.2l2.7-2.7l-1.2-1.2c0.3-0.5,0.5-1.1,0.7-1.6h1.7v-3.8
							h-1.7c-0.2-0.6-0.4-1.1-0.7-1.6l1.2-1.2l-2.7-2.7l-1.2,1.2c-0.5-0.3-1.1-0.5-1.6-0.7v-1.7h-3.8v1.7c-0.6,0.2-1.1,0.4-1.6,0.7
							l-1.2-1.2l-2.7,2.7l1.2,1.2c-0.3,0.5-0.5,1.1-0.7,1.6H-45v3.8h1.7c0.2,0.6,0.4,1.1,0.7,1.6l-1.2,1.2l2.7,2.7l1.2-1.2
							c0.5,0.3,1.1,0.5,1.6,0.7v1.7H-34.5z M-39.8,101.7c0-1.9,1.5-3.4,3.4-3.4c1.9,0,3.4,1.5,3.4,3.4c0,1.9-1.5,3.4-3.4,3.4
							C-38.3,105.1-39.8,103.5-39.8,101.7z"/>
					</g>
				</g>
			</g>
			<g class="st12">
				<g>
					<g>
						<path class="st10" d="M614-82.4c0,1.3-5.8,2.3-12.9,2.3c-7.1,0-12.9-1-12.9-2.3c0-1.3,5.8-2.3,12.9-2.3
							C608.2-84.7,614-83.7,614-82.4z"/>
					</g>
					<g>
						<g>
							<g>
								<g>
									<path class="st10" d="M601.1-125.4c-7.1,0-12.9,5.8-12.9,12.9c0,1.8,0.4,3.5,1,5.1l0,0c0.1,0.3,0.2,0.5,0.4,0.8l11.5,24.3
										l11.4-24.1c1-1.8,1.5-3.9,1.5-6C614-119.6,608.2-125.4,601.1-125.4z M601.1-103.9c-4.8,0-8.6-3.9-8.6-8.6
										c0-4.8,3.9-8.6,8.6-8.6c4.8,0,8.6,3.9,8.6,8.6C609.8-107.7,605.9-103.9,601.1-103.9z"/>
								</g>
							</g>
						</g>
					</g>
					<g>
						<circle class="st10" cx="601.1" cy="-112.5" r="6.5"/>
					</g>
				</g>
			</g>
			<g class="st12">
				<g>
					<g>
						<circle class="st10" cx="818.7" cy="127.8" r="2.5"/>
					</g>
					<g>
						<path class="st10" d="M816.3,119.8c5.8,0,10.4,4.7,10.4,10.4h3.4c0-7.6-6.2-13.8-13.8-13.8V119.8z"/>
						<path class="st10" d="M816.3,110.9c10.7,0,19.3,8.7,19.3,19.3l0,0h3.9l0,0c0-12.8-10.4-23.2-23.2-23.2V110.9z"/>
						<path class="st10" d="M816.3,102.2c15.5,0,28.1,12.6,28.1,28.1l0,0h4.2l0,0c0-17.8-14.5-32.3-32.3-32.3V102.2z"/>
					</g>
				</g>
			</g>
			<g class="st12">
				<g>
					<path class="st10" d="M848.5,35.7c-0.7,0.3-1.3,0.6-2,0.8c0.7-0.6,1.3-1.3,1.9-2l-0.4-2.9c-1.4,2.1-3.1,3.8-5.2,5.1V29
						c1.7,0.1,3.4,0.5,5,1.1l-0.3-2.1c-1.5-0.5-3.1-0.8-4.7-0.9v-5.4h8.4c-0.1,1.5-0.3,3.1-0.7,4.5l1.7,1.4c0.6-1.9,0.9-3.8,1-5.9h5
						c-0.2,3.1-1.2,6-2.9,8.4l1.5,1.2c2.1-3,3.4-6.7,3.4-10.6c0-4.7-1.8-9.1-4.8-12.3l0,0l-0.7-0.7c-3-3-6.9-4.8-11-5.2
						c0,0-0.1,0-0.1,0c-0.3,0-0.5,0-0.8-0.1c-0.1,0-0.1,0-0.2,0c-0.1,0-0.2,0-0.3,0c-0.4,0-0.8-0.1-1.3-0.1c-0.1,0-0.3,0-0.4,0.1
						c0,0,0,0-0.1,0c-0.3,0-0.5,0-0.8,0.1c0,0-0.1,0-0.1,0c-4.1,0.4-8,2.3-11,5.2l-0.7,0.7l0,0c-3,3.3-4.8,7.6-4.8,12.3
						s1.8,9.1,4.8,12.3l0,0l0.7,0.7c3,3,6.8,4.8,11,5.2c0,0,0.1,0,0.1,0c0.3,0,0.5,0,0.8,0.1c0,0,0,0,0.1,0c0.1,0,0.2,0.1,0.4,0.1
						c0,0,0,0,0,0c0.4,0,0.9,0,1.3-0.1c0.1,0,0.2,0,0.3,0c0.1,0,0.1,0,0.2,0c0.3,0,0.5,0,0.8-0.1c0,0,0.1,0,0.1,0
						c1.7-0.2,3.4-0.6,5-1.3L848.5,35.7z M858.2,19.7h-5c-0.1-2.9-0.8-5.6-1.9-8.1c0.9-0.6,1.8-1.2,2.7-2
						C856.4,12.4,858,15.9,858.2,19.7z M852.7,8.3c-0.7,0.6-1.4,1.1-2.2,1.6c-1.1-1.9-2.4-3.6-4-5.1C848.8,5.6,850.9,6.8,852.7,8.3z
						 M842.8,4.6c2.5,1.5,4.5,3.7,6,6.3c-1.9,0.9-3.9,1.4-6,1.5V4.6z M842.8,14.3c2.4-0.1,4.7-0.7,6.8-1.7c1,2.2,1.5,4.6,1.6,7.1
						h-8.4V14.3z M837.1,4.9c-1.6,1.4-3,3.2-4,5.1c-0.8-0.5-1.5-1-2.2-1.6C832.6,6.8,834.7,5.6,837.1,4.9z M829.5,9.7
						c0.8,0.7,1.7,1.4,2.7,2c-1.1,2.5-1.7,5.2-1.9,8.1h-5C825.5,15.9,827.1,12.4,829.5,9.7z M825.3,21.6h5c0.1,2.9,0.8,5.6,1.9,8.1
						c-0.9,0.6-1.8,1.2-2.7,2C827.1,29,825.5,25.5,825.3,21.6z M830.9,33c0.7-0.6,1.4-1.1,2.2-1.6c1.1,1.9,2.4,3.6,4,5.1
						C834.7,35.8,832.6,34.6,830.9,33z M840.8,36.8c-2.5-1.5-4.5-3.7-6-6.3c1.9-0.9,3.9-1.4,6-1.5V36.8z M840.8,27.1
						c-2.4,0.1-4.7,0.7-6.8,1.7c-1-2.2-1.5-4.6-1.6-7.1h8.4V27.1z M840.8,19.7h-8.4c0.1-2.5,0.7-4.9,1.6-7.1c2.1,1,4.4,1.6,6.8,1.7
						V19.7z M840.8,12.4c-2.1-0.1-4.1-0.6-6-1.5c1.4-2.6,3.5-4.8,6-6.3V12.4z"/>
					<polygon class="st10" points="857.9,33.9 848.6,26.2 850.1,38.2 852.8,36.7 855.4,41.3 857.7,40.1 855.2,35.4 					"/>
				</g>
			</g>
			<g class="st12">
				<g>
					<g>
						<g>
							<path class="st10" d="M709.8-48.5c-2.9-5.9-9-9.9-16-9.9c-9.1,0-16.7,6.9-17.8,15.7h4.4c1-6.4,6.6-11.3,13.3-11.3
								c5.8,0,10.8,3.7,12.7,8.8l-2.5,2.5h3.1h4.4h0.8V-51L709.8-48.5z"/>
						</g>
					</g>
					<g>
						<g>
							<path class="st10" d="M693.8-27c-5.8,0-10.8-3.7-12.7-8.8l2.5-2.5h-3.2h-4.4l0,0h-0.8v8.4l2.6-2.6c2.9,5.9,9,9.9,16,9.9
								c9.1,0,16.7-6.9,17.8-15.7h-4.4C706.1-31.9,700.5-27,693.8-27z"/>
						</g>
					</g>
				</g>
			</g>
			<path class="st16" d="M108.2-59.2v41.9l16.1-8.8v-26.6l0,0C124.2-56.2,117-59.2,108.2-59.2z"/>
			<g class="st12">
				<rect x="274.6" y="-128.2" class="st10" width="3.9" height="2.2"/>
			</g>
			<g class="st12">
				<rect x="274.6" y="-133.7" class="st10" width="3.9" height="2.2"/>
			</g>
			<g class="st12">
				<rect x="274.6" y="-139.3" class="st10" width="3.9" height="2.2"/>
			</g>
			<g class="st12">
				<rect x="274.6" y="-144.8" class="st10" width="3.9" height="2.2"/>
			</g>
			<g class="st12">
				<path class="st10" d="M-50.8,33.2c0,1.1-0.9,2-2,2s-2-0.9-2-2s0.9-4.6,2-4.6S-50.8,32.1-50.8,33.2z"/>
				<path class="st10" d="M-42.1,33.2c0,1.1-0.9,2-2,2s-2-0.9-2-2s0.9-4.6,2-4.6S-42.1,32.1-42.1,33.2z"/>
				<path class="st10" d="M-33.4,33.2c0,1.1-0.9,2-2,2s-2-0.9-2-2s0.9-4.6,2-4.6S-33.4,32.1-33.4,33.2z"/>
				<path class="st10" d="M-24.8,33.2c0,1.1-0.9,2-2,2s-2-0.9-2-2s0.9-4.6,2-4.6S-24.8,32.1-24.8,33.2z"/>
			</g>
			<g class="st12">
				<path class="st10" d="M-46.5,41.3c0,1.1-0.9,2-2,2s-2-0.9-2-2s0.9-4.6,2-4.6S-46.5,40.2-46.5,41.3z"/>
				<path class="st10" d="M-37.8,41.3c0,1.1-0.9,2-2,2c-1.1,0-2-0.9-2-2s0.9-4.6,2-4.6C-38.7,36.7-37.8,40.2-37.8,41.3z"/>
				<path class="st10" d="M-29.1,41.3c0,1.1-0.9,2-2,2s-2-0.9-2-2s0.9-4.6,2-4.6S-29.1,40.2-29.1,41.3z"/>
			</g>
			<path class="st7" d="M540.3-140.4c-0.8,2-4.5,3.9-6.1,4c-1.6,0.1-1.7,1.3-10.5-2.6c-8.8-3.9-14.1-13.2-14.5-13.8
				c-0.4-0.6-3.4-4.9-3.2-9.2c0.2-4.3,2.5-6.4,3.3-7.2c0.8-0.8,1.8-1,2.4-1c0.6,0,1.2,0.1,1.7,0.1c0.5,0,1.3-0.2,1.9,1.5
				c0.7,1.8,2.3,6.2,2.5,6.6c0.2,0.4,0.3,1,0,1.5c-0.3,0.6-0.5,0.9-0.9,1.4c-0.5,0.5-1,1.1-1.4,1.5c-0.5,0.4-0.9,0.9-0.5,1.8
				c0.5,0.9,2.1,3.8,4.7,6.3c3.2,3.1,6,4.2,6.9,4.6c0.9,0.5,1.4,0.4,1.9-0.1c0.5-0.6,2.3-2.5,2.9-3.3c0.6-0.9,1.2-0.7,2-0.4
				c0.8,0.3,5,2.6,5.9,3.1c0.9,0.5,1.4,0.7,1.6,1.1C541.2-144.2,541.1-142.4,540.3-140.4z"/>
		</g>
		<g>
			<polygon class="st9" points="489.8,134.4 213.7,134.4 228.9,60.2 474.6,60.2 			"/>
			<g>
				<polygon class="st9" points="350.7,21.8 219.4,126.4 481.9,126.4 				"/>
			</g>
			<polygon class="st9" points="697.8,123.5 104.2,123.5 31.5,273.2 770.5,273.2 			"/>
			<g class="st15">
				<polygon class="st4" points="54.8,225.3 54,226.9 748,226.9 747.2,225.3 				"/>
				<polygon class="st4" points="58.4,217.8 57.6,219.4 744.4,219.4 743.6,217.8 				"/>
				<polygon class="st4" points="62.1,210.3 61.3,211.9 740.7,211.9 739.9,210.3 				"/>
				<polygon class="st4" points="51.1,232.8 50.4,234.4 751.6,234.4 750.9,232.8 				"/>
				<polygon class="st4" points="40.2,255.2 39.4,256.9 762.6,256.9 761.8,255.2 				"/>
				<polygon class="st4" points="69.3,195.3 68.6,196.9 733.4,196.9 732.7,195.3 				"/>
				<polygon class="st4" points="765.4,262.7 36.6,262.7 35.8,264.4 766.2,264.4 				"/>
				<polygon class="st4" points="43.9,247.8 43.1,249.4 758.9,249.4 758.1,247.8 				"/>
				<polygon class="st4" points="47.5,240.3 46.7,241.9 755.3,241.9 754.5,240.3 				"/>
				<polygon class="st4" points="65.7,202.8 64.9,204.4 737.1,204.4 736.3,202.8 				"/>
				<polygon class="st4" points="94.8,142.8 94,144.4 708,144.4 707.2,142.8 				"/>
				<polygon class="st4" points="98.5,135.3 97.7,136.9 704.3,136.9 703.5,135.3 				"/>
				<polygon class="st4" points="91.2,150.3 90.4,151.9 711.6,151.9 710.8,150.3 				"/>
				<polygon class="st4" points="102.1,127.8 101.3,129.4 700.7,129.4 699.9,127.8 				"/>
				<polygon class="st4" points="76.6,180.3 75.8,181.9 726.2,181.9 725.4,180.3 				"/>
				<polygon class="st4" points="73,187.8 72.2,189.4 729.8,189.4 729,187.8 				"/>
				<polygon class="st4" points="87.5,157.8 86.8,159.4 715.2,159.4 714.5,157.8 				"/>
				<polygon class="st4" points="80.3,172.8 79.5,174.4 722.5,174.4 721.7,172.8 				"/>
				<polygon class="st4" points="83.9,165.3 83.1,166.9 718.9,166.9 718.1,165.3 				"/>
			</g>
			<polygon class="st22" points="246.5,177.4 253.3,123.5 162.9,123.5 213.7,221.7 			"/>
			<rect x="489.8" y="268" class="st10" width="82.9" height="5.2"/>
			<rect x="489.8" y="268" class="st22" width="82.9" height="5.2"/>
			<g>
				<rect x="213.7" y="134.4" class="st3" width="145.4" height="88.2"/>
				<rect x="328.3" y="134.4" class="st22" width="30.8" height="88.2"/>
				<g>
					<g class="st0">
						<rect x="213.7" y="141.3" class="st21" width="145.4" height="1"/>
					</g>
					<g class="st0">
						<rect x="213.7" y="145.6" class="st21" width="145.4" height="1"/>
					</g>
					<g class="st0">
						<rect x="213.7" y="149.9" class="st21" width="145.4" height="1"/>
					</g>
					<g class="st0">
						<rect x="213.7" y="154.3" class="st21" width="145.4" height="1"/>
					</g>
					<g class="st0">
						<rect x="213.7" y="158.6" class="st21" width="145.4" height="1"/>
					</g>
					<g class="st0">
						<rect x="213.7" y="162.9" class="st21" width="145.4" height="1"/>
					</g>
					<g class="st0">
						<rect x="213.7" y="167.2" class="st21" width="145.4" height="1"/>
					</g>
					<g class="st0">
						<rect x="213.7" y="171.6" class="st21" width="145.4" height="1"/>
					</g>
					<g class="st0">
						<rect x="213.7" y="175.9" class="st21" width="145.4" height="1"/>
					</g>
					<g class="st0">
						<rect x="213.7" y="180.2" class="st21" width="145.4" height="1"/>
					</g>
					<g class="st0">
						<rect x="213.7" y="184.6" class="st21" width="145.4" height="1"/>
					</g>
					<g class="st0">
						<rect x="213.7" y="188.9" class="st21" width="145.4" height="1"/>
					</g>
					<g class="st0">
						<rect x="213.7" y="193.2" class="st21" width="145.4" height="1"/>
					</g>
					<g class="st0">
						<rect x="213.7" y="197.6" class="st21" width="145.4" height="1"/>
					</g>
					<g class="st0">
						<rect x="213.7" y="201.9" class="st21" width="145.4" height="1"/>
					</g>
					<g class="st0">
						<rect x="213.7" y="206.2" class="st21" width="145.4" height="1"/>
					</g>
					<g class="st0">
						<rect x="213.7" y="210.6" class="st21" width="145.4" height="1"/>
					</g>
					<g class="st0">
						<rect x="213.7" y="214.9" class="st21" width="145.4" height="1"/>
					</g>
					<g class="st0">
						<rect x="213.7" y="219.2" class="st21" width="145.4" height="1"/>
					</g>
				</g>
				<rect x="248.9" y="146.8" class="st10" width="75" height="70.1"/>
				<rect x="259.1" y="156.3" class="st6" width="54.6" height="51.1"/>
				<rect x="259.1" y="156.3" class="st6" width="27.3" height="51.1"/>
				<polygon class="st2" points="286.4,202.9 286.4,201.6 273.5,201.6 273.5,192.9 286.4,192.9 286.4,191.6 273.5,191.6 
					273.5,182.8 286.4,182.8 286.4,181.5 273.5,181.5 273.5,172.8 286.4,172.8 286.4,171.5 273.5,171.5 273.5,162.8 286.4,162.8 
					286.4,161.5 273.5,161.5 273.5,156.3 272,156.3 272,161.5 259.1,161.5 259.1,162.8 272,162.8 272,171.5 259.1,171.5 
					259.1,172.8 272,172.8 272,181.5 259.1,181.5 259.1,182.8 272,182.8 272,191.6 259.1,191.6 259.1,192.9 272,192.9 272,201.6 
					259.1,201.6 259.1,202.9 272,202.9 272,207.4 273.5,207.4 273.5,202.9 				"/>
				<rect x="284.2" y="156.3" class="st10" width="4.5" height="51.1"/>
				<rect x="213.7" y="121.1" class="st10" width="145.4" height="13.3"/>
				<rect x="213.7" y="134.4" class="st22" width="145.4" height="3"/>
				<g>
					<rect x="251.9" y="99.9" class="st22" width="3.1" height="21.2"/>
					<rect x="317.9" y="48.2" class="st22" width="3.1" height="72.9"/>
					<rect x="284.9" y="72.3" class="st22" width="3.1" height="48.8"/>
					<rect x="350.1" y="25.2" class="st22" width="3.1" height="97.1"/>
					<g>
						<rect x="334.4" y="49.2" class="st10" width="34.6" height="43.8"/>
					</g>
					<g>
						<polygon class="st13" points="351.3,58.6 340.7,67 340.7,85.7 362.6,85.7 362.6,67.7 						"/>
					</g>
					<rect x="383.8" y="48.2" class="st22" width="3.1" height="72.9"/>
				</g>
				<g class="st15">
					<rect x="251.2" y="121.1" class="st4" width="9" height="22.3"/>
					<rect x="284.2" y="121.1" class="st4" width="9" height="22.3"/>
					<rect x="317.1" y="121.1" class="st4" width="9" height="22.3"/>
				</g>
				<rect x="248.9" y="121.1" class="st10" width="9" height="19.5"/>
				<rect x="281.9" y="121.1" class="st10" width="9" height="19.5"/>
				<rect x="314.9" y="121.1" class="st10" width="9" height="19.5"/>
			</g>
			<polygon class="st9" points="736.9,243.9 660,182.7 583.2,243.9 			"/>
			<rect x="51.7" y="273.2" class="st8" width="152.2" height="126.8"/>
			<rect x="66.3" y="273.2" class="st10" width="137.6" height="126.8"/>
			<rect x="203.8" y="273.2" class="st13" width="25.6" height="126.8"/>
			<g>
				<rect x="643.2" y="187.1" class="st10" width="34.6" height="43.8"/>
			</g>
			<g>
				<polygon class="st13" points="660,196.6 649.5,205 649.5,223.6 671.4,223.6 671.4,205.6 				"/>
			</g>
			<rect x="229.4" y="273.2" class="st10" width="266.6" height="126.8"/>
			<rect x="240.4" y="290.4" class="st5" width="217.9" height="108.8"/>
			<rect x="203.8" y="352.5" class="st17" width="25.6" height="47.5"/>
			<rect x="458.3" y="352.5" class="st17" width="37.7" height="47.5"/>
			<rect x="496" y="273.2" class="st10" width="76.7" height="116.7"/>
			<rect x="496" y="386.3" class="st1" width="76.7" height="3.6"/>
			<rect x="502.1" y="278.8" class="st6" width="64.4" height="14.2"/>
			<rect x="496" y="298.3" class="st9" width="38.3" height="88"/>
			<rect x="541.1" y="298.3" class="st6" width="22.1" height="50.7"/>
			<rect x="503.1" y="304.4" class="st6" width="24.1" height="16.7"/>
			<rect x="503.1" y="325.6" class="st22" width="9.2" height="49.7"/>
			<rect x="518.1" y="325.6" class="st22" width="9.2" height="49.7"/>
			<rect x="75.3" y="289.8" class="st5" width="119.6" height="110.2"/>
			<g>
				<g>
					<rect x="84.5" y="293" class="st19" width="8.2" height="11.4"/>
					<rect x="95.8" y="293" class="st19" width="8.2" height="11.4"/>
					<rect x="107.2" y="293" class="st19" width="8.2" height="11.4"/>
					<rect x="118.6" y="293" class="st19" width="8.2" height="11.4"/>
				</g>
				<g>
					<rect x="143.3" y="293" class="st19" width="8.2" height="11.4"/>
					<rect x="154.7" y="293" class="st19" width="8.2" height="11.4"/>
					<rect x="166.1" y="293" class="st19" width="8.2" height="11.4"/>
					<rect x="177.5" y="293" class="st19" width="8.2" height="11.4"/>
				</g>
			</g>
			<g class="st15">
				<g class="st14">
					<path class="st5" d="M127.9,327H83.4v-16.7h44.5V327z M85.5,324.8h40.2v-12.4H85.5V324.8z"/>
				</g>
				<g class="st14">
					<path class="st5" d="M127.9,348.7H83.4V332h44.5V348.7z M85.5,346.5h40.2v-12.4H85.5V346.5z"/>
				</g>
				<g class="st14">
					<path class="st5" d="M127.9,370.4H83.4v-16.7h44.5V370.4z M85.5,368.2h40.2v-12.4H85.5V368.2z"/>
				</g>
				<g class="st14">
					<path class="st5" d="M127.9,392.1H83.4v-16.7h44.5V392.1z M85.5,389.9h40.2v-12.4H85.5V389.9z"/>
				</g>
			</g>
			<g class="st15">
				<g class="st14">
					<path class="st5" d="M186.7,327h-44.5v-16.7h44.5V327z M144.4,324.8h40.2v-12.4h-40.2V324.8z"/>
				</g>
				<g class="st14">
					<path class="st5" d="M186.7,348.7h-44.5V332h44.5V348.7z M144.4,346.5h40.2v-12.4h-40.2V346.5z"/>
				</g>
				<g class="st14">
					<path class="st5" d="M186.7,370.4h-44.5v-16.7h44.5V370.4z M144.4,368.2h40.2v-12.4h-40.2V368.2z"/>
				</g>
				<g class="st14">
					<path class="st5" d="M186.7,392.1h-44.5v-16.7h44.5V392.1z M144.4,389.9h40.2v-12.4h-40.2V389.9z"/>
				</g>
			</g>
			<g>
				<g>
					<g>
						<g>
							<rect x="247.6" y="293" class="st19" width="8.2" height="11.4"/>
							<rect x="258.9" y="293" class="st19" width="8.2" height="11.4"/>
							<rect x="270.3" y="293" class="st19" width="8.2" height="11.4"/>
							<rect x="281.7" y="293" class="st19" width="8.2" height="11.4"/>
						</g>
					</g>
					<g class="st15">
						<g class="st14">
							<path class="st5" d="M291,327h-44.5v-16.7H291V327z M248.7,324.8h40.2v-12.4h-40.2V324.8z"/>
						</g>
						<g class="st14">
							<path class="st5" d="M291,348.7h-44.5V332H291V348.7z M248.7,346.5h40.2v-12.4h-40.2V346.5z"/>
						</g>
						<g class="st14">
							<path class="st5" d="M291,370.4h-44.5v-16.7H291V370.4z M248.7,368.2h40.2v-12.4h-40.2V368.2z"/>
						</g>
						<g class="st14">
							<path class="st5" d="M291,392.1h-44.5v-16.7H291V392.1z M248.7,389.9h40.2v-12.4h-40.2V389.9z"/>
						</g>
					</g>
				</g>
				<g>
					<g>
						<g>
							<rect x="301.3" y="293" class="st19" width="8.2" height="11.4"/>
							<rect x="312.7" y="293" class="st19" width="8.2" height="11.4"/>
							<rect x="324" y="293" class="st19" width="8.2" height="11.4"/>
							<rect x="335.4" y="293" class="st19" width="8.2" height="11.4"/>
						</g>
					</g>
					<g class="st15">
						<g class="st14">
							<path class="st5" d="M344.7,327h-44.5v-16.7h44.5V327z M302.4,324.8h40.2v-12.4h-40.2V324.8z"/>
						</g>
						<g class="st14">
							<path class="st5" d="M344.7,348.7h-44.5V332h44.5V348.7z M302.4,346.5h40.2v-12.4h-40.2V346.5z"/>
						</g>
						<g class="st14">
							<path class="st5" d="M344.7,370.4h-44.5v-16.7h44.5V370.4z M302.4,368.2h40.2v-12.4h-40.2V368.2z"/>
						</g>
						<g class="st14">
							<path class="st5" d="M344.7,392.1h-44.5v-16.7h44.5V392.1z M302.4,389.9h40.2v-12.4h-40.2V389.9z"/>
						</g>
					</g>
				</g>
				<g>
					<g>
						<g>
							<rect x="355" y="293" class="st19" width="8.2" height="11.4"/>
							<rect x="366.4" y="293" class="st19" width="8.2" height="11.4"/>
							<rect x="377.8" y="293" class="st19" width="8.2" height="11.4"/>
							<rect x="389.2" y="293" class="st19" width="8.2" height="11.4"/>
						</g>
					</g>
					<g class="st15">
						<g class="st14">
							<path class="st5" d="M398.4,327h-44.5v-16.7h44.5V327z M356.1,324.8h40.2v-12.4h-40.2V324.8z"/>
						</g>
						<g class="st14">
							<path class="st5" d="M398.4,348.7h-44.5V332h44.5V348.7z M356.1,346.5h40.2v-12.4h-40.2V346.5z"/>
						</g>
						<g class="st14">
							<path class="st5" d="M398.4,370.4h-44.5v-16.7h44.5V370.4z M356.1,368.2h40.2v-12.4h-40.2V368.2z"/>
						</g>
						<g class="st14">
							<path class="st5" d="M398.4,392.1h-44.5v-16.7h44.5V392.1z M356.1,389.9h40.2v-12.4h-40.2V389.9z"/>
						</g>
					</g>
				</g>
				<g>
					<g>
						<g>
							<rect x="408.7" y="293" class="st19" width="8.2" height="11.4"/>
							<rect x="420.1" y="293" class="st19" width="8.2" height="11.4"/>
							<rect x="431.5" y="293" class="st19" width="8.2" height="11.4"/>
							<rect x="442.9" y="293" class="st19" width="8.2" height="11.4"/>
						</g>
					</g>
					<g class="st15">
						<g class="st14">
							<path class="st5" d="M452.2,327h-44.5v-16.7h44.5V327z M409.8,324.8H450v-12.4h-40.2V324.8z"/>
						</g>
						<g class="st14">
							<path class="st5" d="M452.2,348.7h-44.5V332h44.5V348.7z M409.8,346.5H450v-12.4h-40.2V346.5z"/>
						</g>
						<g class="st14">
							<path class="st5" d="M452.2,370.4h-44.5v-16.7h44.5V370.4z M409.8,368.2H450v-12.4h-40.2V368.2z"/>
						</g>
						<g class="st14">
							<path class="st5" d="M452.2,392.1h-44.5v-16.7h44.5V392.1z M409.8,389.9H450v-12.4h-40.2V389.9z"/>
						</g>
					</g>
				</g>
			</g>
			<rect x="51.7" y="273.2" class="st1" width="444.4" height="25.6"/>
			<g>
				<rect x="593.3" y="273.2" class="st13" width="134.3" height="126.8"/>
				<g class="st0">
					<g class="st14">
						<rect x="593.3" y="394.7" class="st13" width="133.5" height="1.1"/>
					</g>
					<g class="st14">
						<rect x="593.3" y="388.8" class="st13" width="133.5" height="1.1"/>
					</g>
					<g class="st14">
						<rect x="593.3" y="383" class="st13" width="133.5" height="1.1"/>
					</g>
					<g class="st14">
						<rect x="593.3" y="377.1" class="st13" width="133.5" height="1.1"/>
					</g>
					<g class="st14">
						<rect x="593.3" y="371.3" class="st13" width="133.5" height="1.1"/>
					</g>
					<g class="st14">
						<rect x="593.3" y="365.4" class="st13" width="133.5" height="1.1"/>
					</g>
					<g class="st14">
						<rect x="593.3" y="359.6" class="st13" width="133.5" height="1.1"/>
					</g>
					<g class="st14">
						<rect x="593.3" y="353.7" class="st13" width="133.5" height="1.1"/>
					</g>
					<g class="st14">
						<rect x="593.3" y="347.9" class="st13" width="133.5" height="1.1"/>
					</g>
					<g class="st14">
						<rect x="593.3" y="342.1" class="st13" width="133.5" height="1.1"/>
					</g>
					<g class="st14">
						<rect x="593.3" y="336.2" class="st13" width="133.5" height="1.1"/>
					</g>
					<g class="st14">
						<rect x="593.3" y="330.4" class="st13" width="133.5" height="1.1"/>
					</g>
					<g class="st14">
						<rect x="593.3" y="324.5" class="st13" width="133.5" height="1.1"/>
					</g>
					<g class="st14">
						<rect x="593.3" y="318.7" class="st13" width="133.5" height="1.1"/>
					</g>
					<g class="st14">
						<rect x="593.3" y="312.8" class="st13" width="133.5" height="1.1"/>
					</g>
					<g class="st14">
						<rect x="593.3" y="307" class="st13" width="133.5" height="1.1"/>
					</g>
					<g class="st14">
						<rect x="593.3" y="301.1" class="st13" width="133.5" height="1.1"/>
					</g>
					<g class="st14">
						<rect x="593.3" y="295.3" class="st13" width="133.5" height="1.1"/>
					</g>
					<g class="st14">
						<rect x="593.3" y="289.4" class="st13" width="133.5" height="1.1"/>
					</g>
					<g class="st14">
						<rect x="593.3" y="283.6" class="st13" width="133.5" height="1.1"/>
					</g>
					<g class="st14">
						<rect x="593.3" y="277.8" class="st13" width="133.5" height="1.1"/>
					</g>
				</g>
				<g>
					<rect x="619.7" y="275.3" class="st6" width="81.5" height="76.7"/>
				</g>
				<g class="st0">
					<g class="st14">
						<rect x="620" y="287.2" class="st6" width="81" height="2.2"/>
					</g>
					<g class="st14">
						<rect x="620" y="299.9" class="st6" width="81" height="2.2"/>
					</g>
					<g class="st14">
						<rect x="620" y="312.6" class="st6" width="81" height="2.2"/>
					</g>
					<g class="st14">
						<rect x="620" y="325.3" class="st6" width="81" height="2.2"/>
					</g>
					<g class="st14">
						<rect x="620" y="337.9" class="st6" width="81" height="2.2"/>
					</g>
				</g>
				<rect x="572.7" y="261" class="st10" width="20.6" height="139"/>
				<rect x="572.7" y="261" class="st10" width="174.7" height="12.2"/>
				<rect x="572.7" y="243.9" class="st13" width="174.7" height="17"/>
				<rect x="572.7" y="254.2" class="st10" width="174.7" height="3.1"/>
				<rect x="572.7" y="243.9" class="st10" width="174.7" height="6.2"/>
				<g class="st15">
					<rect x="585.9" y="250.1" class="st4" width="9.6" height="18.1"/>
					<rect x="621.8" y="250.1" class="st4" width="9.6" height="18.1"/>
					<rect x="657.8" y="250.1" class="st4" width="9.6" height="18.1"/>
					<rect x="693.8" y="250.1" class="st4" width="9.6" height="18.1"/>
					<rect x="729.7" y="250.1" class="st4" width="9.6" height="18.1"/>
				</g>
				<rect x="572.7" y="352.5" class="st17" width="20.6" height="47.5"/>
				<rect x="726.8" y="261" class="st10" width="20.6" height="139"/>
				<rect x="726.8" y="352.5" class="st17" width="20.6" height="47.5"/>
				<path class="st10" d="M699,277.5v72.3h-77.1v-72.3H699 M703.4,273.2h-85.8v81h85.8V273.2L703.4,273.2z"/>
				<g>
					<rect x="583.4" y="250.1" class="st10" width="9.6" height="14.4"/>
					<rect x="619.3" y="250.1" class="st10" width="9.6" height="14.4"/>
					<rect x="655.3" y="250.1" class="st10" width="9.6" height="14.4"/>
					<rect x="691.2" y="250.1" class="st10" width="9.6" height="14.4"/>
					<rect x="727.2" y="250.1" class="st10" width="9.6" height="14.4"/>
				</g>
			</g>
			<polygon class="st22" points="747.4,261 747.4,261 747.4,257.3 747.4,254.6 660,185 572.7,254.6 572.7,257.3 572.7,261 
				572.7,261 572.7,271.2 660,201.6 747.4,271.2 			"/>
			<g>
				<polygon class="st10" points="759.9,268.9 660,189.3 560.2,268.9 552,258.7 660,172.7 768.1,258.7 				"/>
			</g>
			<polygon class="st22" points="351.6,25.2 213.7,135 213.7,151.7 351.6,41.9 451.5,121.4 459.6,111.3 			"/>
			<g>
				<path class="st9" d="M346.3,131.9l67.3-53.6l67.3,53.6H346.3L346.3,131.9z"/>
				<rect x="337.4" y="137.4" class="st13" width="152.4" height="92.4"/>
				<g>
					<g class="st0">
						<rect x="337.4" y="144.6" class="st21" width="152.4" height="1.1"/>
					</g>
					<g class="st0">
						<rect x="337.4" y="149.1" class="st21" width="152.4" height="1.1"/>
					</g>
					<g class="st0">
						<rect x="337.4" y="153.6" class="st21" width="152.4" height="1.1"/>
					</g>
					<g class="st0">
						<rect x="337.4" y="158.2" class="st21" width="152.4" height="1.1"/>
					</g>
					<g class="st0">
						<rect x="337.4" y="162.7" class="st21" width="152.4" height="1.1"/>
					</g>
					<g class="st0">
						<rect x="337.4" y="167.3" class="st21" width="152.4" height="1.1"/>
					</g>
					<g class="st0">
						<rect x="337.4" y="171.8" class="st21" width="152.4" height="1.1"/>
					</g>
					<g class="st0">
						<rect x="337.4" y="176.3" class="st21" width="152.4" height="1.1"/>
					</g>
					<g class="st0">
						<rect x="337.4" y="180.9" class="st21" width="152.4" height="1.1"/>
					</g>
					<g class="st0">
						<rect x="337.4" y="185.4" class="st21" width="152.4" height="1.1"/>
					</g>
					<g class="st0">
						<rect x="337.4" y="190" class="st21" width="152.4" height="1.1"/>
					</g>
					<g class="st0">
						<rect x="337.4" y="194.5" class="st21" width="152.4" height="1.1"/>
					</g>
					<g class="st0">
						<rect x="337.4" y="199" class="st21" width="152.4" height="1.1"/>
					</g>
					<g class="st0">
						<rect x="337.4" y="203.6" class="st21" width="152.4" height="1.1"/>
					</g>
					<g class="st0">
						<rect x="337.4" y="208.1" class="st21" width="152.4" height="1.1"/>
					</g>
					<g class="st0">
						<rect x="337.4" y="212.7" class="st21" width="152.4" height="1.1"/>
					</g>
					<g class="st0">
						<rect x="337.4" y="217.2" class="st21" width="152.4" height="1.1"/>
					</g>
					<g class="st0">
						<rect x="337.4" y="221.7" class="st21" width="152.4" height="1.1"/>
					</g>
					<g class="st0">
						<rect x="337.4" y="226.3" class="st21" width="152.4" height="1.1"/>
					</g>
				</g>
				<rect x="374.3" y="150.4" class="st10" width="78.6" height="73.5"/>
				<rect x="385" y="160.4" class="st6" width="57.2" height="53.5"/>
				<rect x="385" y="160.4" class="st6" width="28.6" height="53.5"/>
				<polygon class="st2" points="413.6,209.2 413.6,207.8 400.1,207.8 400.1,198.7 413.6,198.7 413.6,197.3 400.1,197.3 
					400.1,188.2 413.6,188.2 413.6,186.8 400.1,186.8 400.1,177.6 413.6,177.6 413.6,176.3 400.1,176.3 400.1,167.1 413.6,167.1 
					413.6,165.7 400.1,165.7 400.1,160.4 398.5,160.4 398.5,165.7 385,165.7 385,167.1 398.5,167.1 398.5,176.3 385,176.3 
					385,177.6 398.5,177.6 398.5,186.8 385,186.8 385,188.2 398.5,188.2 398.5,197.3 385,197.3 385,198.7 398.5,198.7 398.5,207.8 
					385,207.8 385,209.2 398.5,209.2 398.5,213.9 400.1,213.9 400.1,209.2 				"/>
				<rect x="411.2" y="160.4" class="st10" width="4.7" height="53.5"/>
				<rect x="337.4" y="123.5" class="st10" width="152.4" height="13.9"/>
				<rect x="337.4" y="137.3" class="st22" width="152.4" height="3.2"/>
				<g>
					<rect x="377.5" y="101.3" class="st22" width="3.2" height="22.2"/>
					<rect x="446.6" y="101.3" class="st22" width="3.2" height="22.2"/>
					<rect x="412" y="72.3" class="st22" width="3.2" height="51.2"/>
				</g>
				<polygon class="st22" points="413.6,71 337.4,131.7 337.4,148.4 413.6,87.7 489.8,148.4 489.8,131.7 				"/>
				<g class="st15">
					<rect x="376.7" y="123.5" class="st4" width="9.5" height="23.3"/>
					<rect x="411.2" y="123.5" class="st4" width="9.5" height="23.3"/>
					<rect x="445.8" y="123.5" class="st4" width="9.5" height="23.3"/>
				</g>
				<rect x="374.3" y="123.5" class="st10" width="9.5" height="20.4"/>
				<rect x="408.9" y="123.5" class="st10" width="9.5" height="20.4"/>
				<rect x="443.4" y="123.5" class="st10" width="9.5" height="20.4"/>
			</g>
			<g>
				<polygon class="st10" points="451.5,108.6 351.6,29 195.7,153.1 187.6,142.9 351.6,12.4 459.6,98.4 				"/>
			</g>
			<g>
				<polygon class="st10" points="513.5,157.8 413.6,78.2 319.4,152.9 311.3,142.7 413.6,61.6 521.6,147.6 				"/>
			</g>
			<polygon class="st19" points="319.4,152.9 337.4,157.2 337.4,138.7 			"/>
			<polygon class="st19" points="513.5,157.8 489.8,157.2 489.8,138.9 			"/>
			<polygon class="st19" points="195.7,153.1 213.7,165.8 213.7,138.8 			"/>
			<rect x="185.7" y="268" class="st10" width="323.9" height="5.2"/>
			<polygon class="st10" points="185.7,268 34,268 31.5,273.2 185.7,273.2 			"/>
			<polygon class="st1" points="572.7,323.6 496,283.6 496,273.2 572.7,273.2 			"/>
			<polygon class="st22" points="194.8,222.6 185.7,267.6 174.3,267.6 			"/>
		</g>
	</g>
</g>
</svg>
