<?xml version="1.0" encoding="utf-8"?>
<!-- Generator: Adobe Illustrator 16.0.3, SVG Export Plug-In . SVG Version: 6.00 Build 0)  -->
<!DOCTYPE svg PUBLIC "-//W3C//DTD SVG 1.1//EN" "http://www.w3.org/Graphics/SVG/1.1/DTD/svg11.dtd" [
	<!ENTITY ns_flows "http://ns.adobe.com/Flows/1.0/">
	<!ENTITY ns_extend "http://ns.adobe.com/Extensibility/1.0/">
	<!ENTITY ns_ai "http://ns.adobe.com/AdobeIllustrator/10.0/">
	<!ENTITY ns_graphs "http://ns.adobe.com/Graphs/1.0/">
	<!ENTITY ns_vars "http://ns.adobe.com/Variables/1.0/">
	<!ENTITY ns_imrep "http://ns.adobe.com/ImageReplacement/1.0/">
	<!ENTITY ns_sfw "http://ns.adobe.com/SaveForWeb/1.0/">
	<!ENTITY ns_custom "http://ns.adobe.com/GenericCustomNamespace/1.0/">
	<!ENTITY ns_adobe_xpath "http://ns.adobe.com/XPath/1.0/">
]>
<svg version="1.1" id="Layer_1" xmlns:x="&ns_extend;" xmlns:i="&ns_ai;" xmlns:graph="&ns_graphs;"
	 xmlns="http://www.w3.org/2000/svg" xmlns:xlink="http://www.w3.org/1999/xlink" xmlns:a="http://ns.adobe.com/AdobeSVGViewerExtensions/3.0/"
	 x="0px" y="0px" width="841.9px" height="595.3px" viewBox="0 0 841.9 595.3" style="enable-background:new 0 0 841.9 595.3;"
	 xml:space="preserve">
<style type="text/css">
<![CDATA[
	.st0{fill-rule:evenodd;clip-rule:evenodd;fill:#090909;}
	.st1{fill-rule:evenodd;clip-rule:evenodd;fill:#0A0A0A;}
	.st2{fill-rule:evenodd;clip-rule:evenodd;fill:#0F0F0F;}
	.st3{fill-rule:evenodd;clip-rule:evenodd;fill:#101010;}
	.st4{fill-rule:evenodd;clip-rule:evenodd;}
	.st5{fill-rule:evenodd;clip-rule:evenodd;fill:#383838;}
]]>
</style>
<metadata>
	<sfw  xmlns="&ns_sfw;">
		<slices></slices>
		<sliceSourceBounds  width="208" height="136.1" y="229.7" x="318.5" bottomLeftOrigin="true"></sliceSourceBounds>
	</sfw>
</metadata>
<g>
	<path class="st4" d="M516.9,296.3c3,3.6,4.6,7.9,6,12.3c2,6.6,3.1,13.4,3.6,20.3c0.2,2.3-1,4.2-2.6,5.8c-0.9,0.9-2,1.7-3.2,2.3
		c-6.3,3.3-12.8,5.8-19.9,6.6c-4.6,0.5-9.2,0.3-13.7-0.8c-7.3-1.8-11.1-6.7-12.5-13.9c-2.1-10.7-2.4-21.5-2.2-32.4
		c0.1-6.4,0.3-12.8,0.4-19.2c0-0.8,0-1.6,0-2.5c-0.5,0.2-0.8,0.6-1,0.9c-13,13.2-23.1,28.4-31.3,45c-6.9,14-12.3,28.7-17.2,43.6
		c-0.1,0.4-0.2,0.7-0.4,1.1c-0.5-0.3-0.5-0.8-0.6-1.2c-5-13.7-10.1-27.4-16.1-40.7c-5.7-12.4-11.9-24.4-20-35.5
		c-3.2-4.3-6.6-8.5-10.8-11.9c-0.9-0.7-1.8-1.4-3-2c0.1,1.2,0.2,2.2,0.2,3.1c0.2,11.4,0.9,22.8,0.3,34.2c-0.3,5.7-0.8,11.3-1.8,16.9
		c-1.6,8.6-7,13.8-15.7,15c-10.6,1.4-20.5-1.2-29.8-6.2c-1.2-0.6-2.2-1.6-3.2-2.5c-2.4-2.3-3.7-5-3.8-8.4c-0.2-9,2.4-17.1,6.6-24.8
		c0.9-1.6,1.9-3.2,2.9-4.8c0.1-0.2,0.2-0.3,0.6-0.7c0,0.7,0,1.1,0,1.5c0,7.3,0.5,14.6,2.1,21.8c0.9,4,3.2,6.4,7.4,7.2
		c5.1,1,10.2,1.9,15.5,1.4c3.9-0.4,5.8-2.2,6.7-6c1.6-6.8,1.9-13.8,1.6-20.7c-1.1-21.3-6.2-41.8-13.9-61.6c-1.2-3.1-2.4-6.2-3.5-9.3
		c-0.1-0.3-0.1-0.6,0.3-0.6c2.8,1.9,5.5,4,8.1,6.1c0.1,0.2,0.2,0.3,0.4,0.4c3.2,2.3,6.3,4.8,9.2,7.4c0.2,0.7,0.8,1,1.4,1.2
		c4.4,3.7,8.6,7.5,12.5,11.7c0.3,0.9,1.2,1.3,1.8,2c0.2,0.2,0.3,0.4,0.5,0.5c0.4,0.8,0.8,1.6,1.7,1.8c3.5,3.8,6.6,8,9.6,12.2
		c11.5,16.1,20.2,33.7,27.3,52.1c1.7,4.5,3.4,8.9,5.2,13.4c0.5-0.2,0.5-0.7,0.6-1c4.3-11.5,8.6-23,14.1-34c7.4-15,16-29.3,26.9-42.1
		c10.3-12,22.1-22.1,35.3-30.9c0.5-0.3,0.9-0.6,1.7-1c-0.9,2.3-1.7,4.3-2.5,6.3c-5,12.5-9.2,25.3-11.9,38.6
		c-2.3,11.6-3.9,23.3-3.5,35.1c0.2,4.2,0.7,8.4,1.7,12.6c0.8,3.5,2.9,5.3,6.4,5.7c5.8,0.6,11.5-0.1,17.1-1.8c4.5-1.4,6.5-5,7-9.4
		c0.7-6,0.7-12.1,0.7-18.2c0-0.3,0-0.6,0-0.8C516.6,297.3,516,296.5,516.9,296.3z"/>
	<path class="st0" d="M380.5,261c-1.2,0-1.7-0.6-1.7-1.8C379.5,259.7,380,260.3,380.5,261z"/>
	<path class="st0" d="M378.2,258.6c-0.8-0.5-1.7-0.8-1.8-2C377.1,257.2,377.8,257.9,378.2,258.6z"/>
	<path class="st3" d="M363.9,245c-0.9,0.1-1.5-0.2-1.4-1.2C363,244.1,363.5,244.5,363.9,245z"/>
	<path class="st1" d="M516.9,296.3c-0.5,0.4-0.4,1-0.6,1.4c0-0.7,0-1.3,0-2.1C516.7,295.8,516.9,296,516.9,296.3z"/>
	<path class="st2" d="M353.3,236.3c-0.1,0.1-0.3,0.3-0.5,0.1c-0.2-0.2,0-0.4,0-0.6C353,236,353.2,236.1,353.3,236.3z"/>
	<path class="st5" d="M344.7,229.8c-0.1,0.2-0.2,0.4-0.3,0.6c-0.2-0.3-0.5-0.6-0.3-0.9C344.3,229.3,344.6,229.6,344.7,229.8z"/>
</g>
</svg>
