<?xml version="1.0" encoding="utf-8"?>
<!-- Generator: Adobe Illustrator 16.0.3, SVG Export Plug-In . SVG Version: 6.00 Build 0)  -->
<!DOCTYPE svg PUBLIC "-//W3C//DTD SVG 1.1//EN" "http://www.w3.org/Graphics/SVG/1.1/DTD/svg11.dtd" [
	<!ENTITY ns_flows "http://ns.adobe.com/Flows/1.0/">
	<!ENTITY ns_extend "http://ns.adobe.com/Extensibility/1.0/">
	<!ENTITY ns_ai "http://ns.adobe.com/AdobeIllustrator/10.0/">
	<!ENTITY ns_graphs "http://ns.adobe.com/Graphs/1.0/">
	<!ENTITY ns_vars "http://ns.adobe.com/Variables/1.0/">
	<!ENTITY ns_imrep "http://ns.adobe.com/ImageReplacement/1.0/">
	<!ENTITY ns_sfw "http://ns.adobe.com/SaveForWeb/1.0/">
	<!ENTITY ns_custom "http://ns.adobe.com/GenericCustomNamespace/1.0/">
	<!ENTITY ns_adobe_xpath "http://ns.adobe.com/XPath/1.0/">
]>
<svg version="1.1" id="Layer_1" xmlns:x="&ns_extend;" xmlns:i="&ns_ai;" xmlns:graph="&ns_graphs;"
	 xmlns="http://www.w3.org/2000/svg" xmlns:xlink="http://www.w3.org/1999/xlink" xmlns:a="http://ns.adobe.com/AdobeSVGViewerExtensions/3.0/"
	 x="0px" y="0px" width="800px" height="800px" viewBox="0 0 800 800" style="enable-background:new 0 0 800 800;"
	 xml:space="preserve">
<style type="text/css">
<![CDATA[
	.st0{fill-rule:evenodd;clip-rule:evenodd;fill:#FEFEFE;}
	.st1{fill-rule:evenodd;clip-rule:evenodd;fill:#020202;}
]]>
</style>
<metadata>
	<sfw  xmlns="&ns_sfw;">
		<slices></slices>
		<sliceSourceBounds  width="693.4" height="453" x="58.3" y="-627.4" bottomLeftOrigin="true"></sliceSourceBounds>
	</sfw>
</metadata>
<g>
	<path class="st0" d="M405.6,539.5c-1.3-3.5-2.3-5.9-3.2-8.3c-18.7-49.6-38.2-98.9-64.1-145.4c-21.1-37.9-44.7-74.3-73.5-106.9
		c-34.7-39.2-75.4-71.8-117.4-102.8c-1.1-0.8-2.4-1.5-3.9-1.7c2.2,5.7,4.3,11.1,6.4,16.6c2.2,5.6,4.3,11.2,6.4,16.8
		c25.8,66.1,42.9,134.2,46.4,205.3c1.2,24.1,0.2,48-5.8,71.5c-2.8,11.1-9.5,16.8-20.8,17.9c-20.3,2-40.1-1.4-59.7-6.6
		c-6.6-1.8-11.1-6.7-14.2-12.7c-1.9-3.8-3.1-7.9-4-12.1c-4.8-23.1-6.5-46.4-6.4-69.9c0-1.2,0.5-2.6-0.5-4.1
		c-4.5,6.3-8.4,12.8-11.9,19.4c-13.6,25.4-22.1,52.1-21.2,81.4c0.3,11,4.4,19.8,12.2,27.3c3.5,3.3,7.1,6.6,11.3,8.8
		c31.2,16.6,64.1,25.4,99.7,20.5c27.9-3.8,46.3-21.7,51.5-49.4c4.7-25.2,6.5-50.8,6.8-76.4c0.4-33.6-0.8-67.2-2-100.8
		c0-1.2,0-2.5,0-4.1c1.2,0.6,2,0.9,2.6,1.3c2.5,1.8,5.1,3.4,7.5,5.4c13.9,11.4,25.3,25.1,35.9,39.6c26.8,36.8,47.8,77,66.6,118.2
		c20.2,44.3,37,89.9,53.8,135.6c0.4,1.2,0.3,2.9,2.1,3.6c0.4-1.2,0.8-2.4,1.1-3.5c16.2-49.7,34.3-98.6,57.5-145.6
		c27.3-55.2,61-105.9,104.4-150c0.9-1,1.5-2.6,3.4-2.5c-0.5,23.9-0.9,47.8-1.4,71.6c-0.8,36.3,0.3,72.5,7.3,108.3
		c4.8,24.6,18.5,40.8,43.4,46.6c14.6,3.4,29.3,4,44.1,2.3c23.6-2.7,45.4-11.2,66.3-22.1c3.9-2,7.5-4.6,10.6-7.8
		c5.4-5.5,9.2-12,8.7-19.9c-1.3-19.4-4.3-38.7-9.2-57.5c-4.5-17.1-10.1-33.7-20.5-48.3c-1.1-1.6-2.4-3-4.3-5.4c0,2.5,0,3.8,0,5.1
		c0.1,22,0.1,44-2.4,65.9c-1.7,15-8.2,27-23.4,31.8c-18.5,5.8-37.5,8-56.9,6c-11.5-1.2-18.5-7.4-21.2-18.6
		c-3.2-13.7-5.1-27.5-5.7-41.5c-1.5-39.8,3.7-79,11.6-117.9c8.9-44.2,22.8-86.8,39.5-128.5c2.6-6.5,5.1-13,7.8-20
		c-1.1,0.3-1.5,0.3-1.8,0.4c-1.6,0.9-3.2,1.9-4.8,2.9c-41.6,27.7-79.3,59.9-112.4,97.5c-36,40.9-64.2,86.9-89,135.3
		c-19.6,38.4-35.2,78.5-50.2,118.8C408,533.4,407,535.9,405.6,539.5z"/>
	<path class="st1" d="M405.6,539.5c1.4-3.6,2.4-6.1,3.3-8.7c15-40.3,30.5-80.4,50.2-118.8c24.7-48.3,53-94.4,89-135.3
		c33-37.5,70.8-69.7,112.4-97.5c1.6-1,3.2-2,4.8-2.9c0.3-0.2,0.7-0.2,1.8-0.4c-2.7,7-5.2,13.5-7.8,20
		c-16.7,41.8-30.6,84.4-39.5,128.5c-7.8,38.9-13.1,78.1-11.6,117.9c0.5,14,2.5,27.9,5.7,41.5c2.6,11.3,9.6,17.5,21.2,18.6
		c19.3,1.9,38.4-0.2,56.9-6c15.2-4.8,21.7-16.8,23.4-31.8c2.5-21.9,2.4-43.9,2.4-65.9c0-1.3,0-2.6,0-5.1c1.9,2.4,3.2,3.8,4.3,5.4
		c10.4,14.6,16,31.2,20.5,48.3c4.9,18.9,7.9,38.1,9.2,57.5c0.5,7.9-3.3,14.4-8.7,19.9c-3.1,3.2-6.7,5.7-10.6,7.8
		c-20.9,10.9-42.7,19.4-66.3,22.1c-14.8,1.7-29.5,1.1-44.1-2.3c-24.9-5.8-38.6-22-43.4-46.6c-7-35.8-8.1-72-7.3-108.3
		c0.5-23.8,1-47.7,1.4-71.6c-1.9-0.1-2.5,1.5-3.4,2.5c-43.4,44-77.1,94.7-104.4,150c-23.2,46.9-41.3,95.9-57.5,145.6
		c-0.4,1.1-0.7,2.3-1.1,3.5c-1.7-0.7-1.6-2.4-2.1-3.6c-16.7-45.7-33.6-91.3-53.8-135.6c-18.8-41.3-39.8-81.4-66.6-118.2
		c-10.5-14.5-21.9-28.2-35.9-39.6c-2.4-1.9-4.9-3.6-7.5-5.4c-0.6-0.4-1.4-0.7-2.6-1.3c0,1.7,0,2.9,0,4.1c1.3,33.6,2.5,67.2,2,100.8
		c-0.3,25.6-2.1,51.1-6.8,76.4c-5.2,27.7-23.5,45.6-51.5,49.4c-35.6,4.9-68.5-4-99.7-20.5c-4.2-2.3-7.9-5.5-11.3-8.8
		c-7.7-7.5-11.8-16.3-12.2-27.3c-0.9-29.3,7.6-56,21.2-81.4c3.6-6.6,7.4-13.1,11.9-19.4c1,1.6,0.5,2.9,0.5,4.1
		c-0.2,23.5,1.6,46.9,6.4,69.9c0.9,4.2,2,8.3,4,12.1c3.1,6.1,7.5,10.9,14.2,12.7c19.5,5.2,39.3,8.6,59.7,6.6
		c11.3-1.1,18-6.8,20.8-17.9c6-23.5,7-47.4,5.8-71.5c-3.5-71.1-20.6-139.2-46.4-205.3c-2.2-5.6-4.3-11.2-6.4-16.8
		c-2.1-5.4-4.2-10.9-6.4-16.6c1.5,0.2,2.8,0.8,3.9,1.7c42,31,82.7,63.6,117.4,102.8c28.8,32.6,52.3,68.9,73.5,106.9
		c25.9,46.5,45.4,95.8,64.1,145.4C403.3,533.6,404.2,536.1,405.6,539.5z"/>
</g>
</svg>
